<mxfile host="app.diagrams.net" modified="2023-08-23T08:06:03.074Z" agent="Mozilla/5.0 (Windows NT 10.0; Win64; x64) AppleWebKit/537.36 (KHTML, like Gecko) Chrome/114.0.0.0 Safari/537.36" version="21.6.6" etag="A02gw6zoXZWHd5NHrkBf" type="github">
  <diagram name="Page-1" id="-6wAc_tujD7my11yYfes">
    <mxGraphModel>
      <root>
        <mxCell id="0" />
        <mxCell id="1" parent="0" />
      </root>
    </mxGraphModel>
  </diagram>
</mxfile>
